<?xml version="1.0" encoding="UTF-8"?>
<svg viewBox="0 0 32 32" version="1.1" xmlns="http://www.w3.org/2000/svg" xmlns:xlink="http://www.w3.org/1999/xlink">
    <title>favicon</title>
    <style>
        #icon {
            fill: #000
        }
        @media (prefers-color-scheme: dark) {
          #icon {
            fill: #fff;
          }
        }
    </style>
    <g id="favicon" stroke="none" stroke-width="1" fill="none" fill-rule="evenodd">
        <path d="M16,0 C24.836556,0 32,7.163444 32,16 C32,24.836556 24.836556,32 16,32 C7.163444,32 0,24.836556 0,16 C0,7.163444 7.163444,0 16,0 Z M14.975,21.6 C14.175,21.6 13.5625,21.7833333 13.1375,22.15 C12.7125,22.5166667 12.5,23.05 12.5,23.75 C12.5,24.45 12.7125,24.9833333 13.1375,25.35 C13.5625,25.7166667 14.175,25.9 14.975,25.9 C15.775,25.9 16.3875,25.7166667 16.8125,25.35 C17.2375,24.9833333 17.45,24.45 17.45,23.75 C17.45,23.05 17.2375,22.5166667 16.8125,22.15 C16.3875,21.7833333 15.775,21.6 14.975,21.6 Z M15.55,6 C14.7333333,6 13.9875,6.07916667 13.3125,6.2375 C12.6375,6.39583333 12.0666667,6.60833333 11.6,6.875 C11.1,7.15833333 10.7083333,7.4875 10.425,7.8625 C10.1416667,8.2375 10,8.70833333 10,9.275 C10,9.825 10.1916667,10.2958333 10.575,10.6875 C10.9583333,11.0791667 11.45,11.275 12.05,11.275 C12.7666667,11.275 13.3458333,11.075 13.7875,10.675 C14.2291667,10.275 14.45,9.775 14.45,9.175 C14.45,8.625 14.3166667,8.17083333 14.05,7.8125 C13.7833333,7.45416667 13.375,7.175 12.825,6.975 C12.975,6.825 13.225,6.70833333 13.575,6.625 C13.925,6.54166667 14.3333333,6.5 14.8,6.5 C15.65,6.5 16.325,6.86666667 16.825,7.6 C17.325,8.33333333 17.575,9.45833333 17.575,10.975 C17.575,12.0916667 17.3791667,13.0375 16.9875,13.8125 C16.5958333,14.5875 14.825,15.2583333 13.675,15.825 L13.675,19.7 L16.175,19.7 L16.175,16.05 C18.3083333,15.6166667 18.9875,14.925 20.2125,13.975 C21.4375,13.025 22.05,11.8666667 22.05,10.5 C22.05,9.58333333 21.7791667,8.78333333 21.2375,8.1 C20.6958333,7.41666667 19.9333333,6.89583333 18.95,6.5375 C17.9666667,6.17916667 16.8333333,6 15.55,6 Z" id="icon" fill-rule="nonzero"></path>
    </g>
</svg>
